<?xml version="1.0" encoding="utf-8"?>
<!-- Generator: Adobe Illustrator 21.0.0, SVG Export Plug-In . SVG Version: 6.00 Build 0)  -->
<svg version="1.1" id="Warstwa_1" xmlns="http://www.w3.org/2000/svg" xmlns:xlink="http://www.w3.org/1999/xlink" x="0px" y="0px"
	 viewBox="0 0 1334.5 521" style="enable-background:new 0 0 1334.5 521;" xml:space="preserve">
<style type="text/css">
	.st0{fill:#0099FF;}
</style>
<g id="Warstwa_3">
</g>
<g id="Warstwa_1_1_">
	<g>
		<path class="st0" d="M336.5,430.7L336.5,430.7L336.5,430.7L186.3,170.6c-3.4,12.7-5.1,26-5.1,39.8c0,27.3,7,53,19.4,75.3
			L336.5,521l56.3-97.6C374.8,428.2,356,430.7,336.5,430.7z"/>
		<path class="st0" d="M492.7,55.1c13.4,13.5,25,28.6,34.6,45.1h0l0,0L377.1,360.3c39.1-10.6,72.2-36.1,92.6-70.1L605.5,55.1H492.7z
			"/>
		<path class="st0" d="M145.6,100.2L145.6,100.2L145.6,100.2h300.3c-28.1-27.9-66.8-45.1-109.5-45.1l0,0h-269l56.3,97.5
			C128.8,134.1,136.2,116.5,145.6,100.2z"/>
	</g>
</g>
<g id="koło">
	<g>
		<path class="st0" d="M336.5,45.1L336.5,45.1L336.5,45.1c68.7,0,127.6,41.9,152.5,101.5l21.1-36.5l0,0l0.3-0.2l5.5-9.6
			C478.9,40.2,412.4,0,336.5,0c-49.2,0-94.4,16.9-130.3,45.1H336.5z"/>
		<path class="st0" d="M481.1,290.4c-28.2,50.8-82.4,85.2-144.6,85.2c-7.2,0-14.2-0.5-21.1-1.3l21.1,36.5l0,0l5.7,9.9
			c113.6-3.1,204.7-96.1,204.7-210.3c0-10.2-0.7-20.3-2.2-30.2L481.1,290.4z"/>
		<path class="st0" d="M194.7,295.3c-14.9-24.8-23.5-53.9-23.5-84.9c0-37.7,12.6-72.4,33.8-100.2h-42.2l0,0l0,0h-11.4
			c-16.2,29.8-25.3,63.9-25.3,100.2c0,88.7,54.8,164.5,132.4,195.5L194.7,295.3z"/>
	</g>
</g>
<g>
	<path class="st0" d="M644.5,113.3h16.9l20.7,49.3l4.8,11.9l3.8-11.9l7.6-18l-13.7-31.3h15.9l5.6,14.9l5.2-14.9h15.9l-13.7,31.3
		l7.8,18.4l4.7,11.5l3.6-11.7l20.8-49.5h16.9l-33.7,76.3h-15.3l-6.8-15.1l-5.5-14.7l-5.5,14.7l-6.9,15.1h-15.3L644.5,113.3z"/>
	<path class="st0" d="M773.8,160.8c0-4.1,0.8-8,2.5-11.6c1.7-3.6,4.1-6.8,7.2-9.5c3.1-2.7,6.9-4.8,11.3-6.4
		c4.4-1.6,9.4-2.3,14.9-2.3c5.5,0,10.5,0.8,14.9,2.3c4.4,1.6,8.2,3.7,11.3,6.4c3.1,2.7,5.5,5.9,7.2,9.5c1.7,3.6,2.5,7.5,2.5,11.6
		c0,4.1-0.8,8-2.5,11.6c-1.7,3.6-4.1,6.8-7.2,9.5c-3.1,2.7-6.9,4.8-11.3,6.4c-4.4,1.6-9.4,2.3-14.9,2.3c-5.5,0-10.5-0.8-14.9-2.3
		c-4.4-1.6-8.2-3.7-11.3-6.4c-3.1-2.7-5.5-5.9-7.2-9.5C774.6,168.8,773.8,165,773.8,160.8z M788.9,160.8c0,2.3,0.5,4.5,1.4,6.6
		c0.9,2.1,2.3,3.9,4.1,5.5c1.8,1.6,3.9,2.8,6.5,3.8c2.6,0.9,5.5,1.4,8.7,1.4c3.3,0,6.2-0.5,8.7-1.4c2.6-0.9,4.7-2.2,6.5-3.8
		c1.8-1.6,3.1-3.4,4.1-5.5c0.9-2.1,1.4-4.3,1.4-6.6c0-2.3-0.5-4.5-1.4-6.6c-0.9-2.1-2.3-3.9-4.1-5.5c-1.8-1.6-3.9-2.8-6.5-3.8
		c-2.6-0.9-5.5-1.4-8.7-1.4c-3.3,0-6.2,0.5-8.7,1.4c-2.6,0.9-4.7,2.2-6.5,3.8c-1.8,1.6-3.1,3.4-4.1,5.5
		C789.4,156.3,788.9,158.5,788.9,160.8z"/>
	<path class="st0" d="M860.4,132h14.5v49c0,2.9-0.1,5.5-0.4,7.8s-0.7,4.5-1.2,6.5c-0.6,2-1.3,3.8-2.3,5.6c-1,1.7-2.2,3.4-3.6,5
		c-1.4,1.6-3.1,3.2-5.1,4.8c-2,1.6-4.3,3.2-6.9,5l-5.3-12.3c2-1.5,3.7-3,5-4.4c1.3-1.5,2.4-3,3.2-4.6c0.8-1.6,1.3-3.3,1.7-5.1
		c0.3-1.8,0.5-3.8,0.5-6V132z M867.7,124.2c-1.4,0-2.7-0.2-3.9-0.6c-1.2-0.4-2.1-1-3-1.7c-0.8-0.7-1.4-1.5-1.9-2.4s-0.7-1.9-0.7-3
		c0-1.1,0.2-2.1,0.7-3s1.1-1.7,1.9-2.4c0.8-0.7,1.8-1.2,3-1.6c1.2-0.4,2.4-0.6,3.9-0.6c1.5,0,2.8,0.2,3.9,0.6c1.2,0.4,2.1,1,3,1.6
		c0.8,0.7,1.4,1.5,1.9,2.4s0.7,1.9,0.7,3c0,1-0.2,2-0.7,3s-1.1,1.7-1.9,2.4c-0.8,0.7-1.8,1.3-3,1.7
		C870.4,123.9,869.1,124.2,867.7,124.2z"/>
	<path class="st0" d="M889.9,161c0-4.2,0.8-8.2,2.3-11.8c1.5-3.7,3.8-6.8,6.8-9.5s6.6-4.8,10.9-6.3c4.3-1.5,9.2-2.3,14.8-2.3
		c2.4,0,4.8,0.1,7.3,0.4s4.8,0.7,7.1,1.2c2.3,0.5,4.4,1.2,6.4,1.9c2,0.7,3.7,1.5,5.2,2.4l-6.7,10.9c-3.2-1.5-6.1-2.5-9-3.2
		c-2.8-0.7-5.7-1-8.6-1c-3.3,0-6.3,0.4-8.9,1.3c-2.6,0.9-4.9,2.1-6.7,3.6c-1.8,1.5-3.2,3.4-4.2,5.5c-1,2.1-1.4,4.4-1.4,6.9
		c0,2.5,0.5,4.8,1.5,6.9s2.5,3.9,4.3,5.4c1.9,1.5,4.1,2.7,6.8,3.6c2.7,0.9,5.6,1.3,8.9,1.3c3.6,0,7-0.5,10.1-1.5
		c3.2-1,6.1-2.4,8.9-4.1l6.7,10.9c-1.7,1-3.6,2-5.6,2.9c-2,0.9-4.2,1.7-6.5,2.3c-2.3,0.7-4.7,1.2-7.2,1.5c-2.5,0.4-5.1,0.6-7.8,0.6
		c-5.5,0-10.4-0.7-14.8-2.2c-4.4-1.5-8.1-3.6-11.1-6.2c-3-2.7-5.3-5.8-7-9.4S889.9,165.2,889.9,161z"/>
	<path class="st0" d="M975.5,124.2c-1.4,0-2.7-0.2-3.9-0.6c-1.2-0.4-2.1-1-3-1.7c-0.8-0.7-1.4-1.5-1.9-2.4s-0.7-1.9-0.7-3
		c0-1.1,0.2-2.1,0.7-3s1.1-1.7,1.9-2.4c0.8-0.7,1.8-1.2,3-1.6c1.2-0.4,2.4-0.6,3.9-0.6c1.5,0,2.8,0.2,3.9,0.6c1.2,0.4,2.1,1,3,1.6
		c0.8,0.7,1.4,1.5,1.9,2.4s0.7,1.9,0.7,3c0,1-0.2,2-0.7,3s-1.1,1.7-1.9,2.4c-0.8,0.7-1.8,1.3-3,1.7
		C978.3,123.9,977,124.2,975.5,124.2z M968.3,132h14.5v57.6h-14.5V132z"/>
	<path class="st0" d="M998.5,160.6c0-3.9,0.8-7.6,2.4-11.2c1.6-3.6,3.9-6.7,6.9-9.4c3-2.7,6.7-4.9,11-6.5c4.3-1.6,9.3-2.4,14.8-2.4
		c5.5,0,10.5,0.8,14.9,2.5c4.4,1.6,8.2,3.9,11.2,6.8c3.1,2.9,5.4,6.2,7.1,10.1c1.6,3.9,2.5,8,2.5,12.5c0,0.6,0,1.1,0,1.8
		c0,0.6-0.1,1.2-0.1,1.7h-54.5c0.6,1.7,1.6,3.3,3,4.7c1.4,1.4,3.1,2.7,5.2,3.7c2.1,1,4.5,1.8,7.2,2.4c2.7,0.6,5.8,0.9,9.1,0.9
		s6.6-0.3,9.9-1c3.3-0.7,6.4-1.6,9.4-2.7l4.9,11c-1.9,0.9-3.8,1.7-5.7,2.3c-1.9,0.7-4,1.2-6.1,1.7s-4.3,0.8-6.6,1
		c-2.3,0.2-4.7,0.3-7.3,0.3c-6.5,0-12.2-0.8-17-2.3c-4.9-1.6-9-3.7-12.3-6.4c-3.3-2.7-5.8-5.9-7.4-9.5
		C999.3,168.7,998.5,164.8,998.5,160.6z M1053.9,155c-0.5-1.6-1.3-3.1-2.4-4.5c-1.1-1.4-2.4-2.6-4.1-3.6c-1.6-1-3.5-1.8-5.7-2.4
		s-4.5-0.9-7.1-0.9c-2.7,0-5.2,0.3-7.5,0.9c-2.2,0.6-4.2,1.4-5.9,2.5c-1.7,1-3.1,2.2-4.2,3.6s-1.9,2.8-2.5,4.3H1053.9z"/>
	<path class="st0" d="M1081.3,161c0-4.2,0.8-8.2,2.3-11.8c1.5-3.7,3.8-6.8,6.8-9.5s6.6-4.8,10.9-6.3c4.3-1.5,9.2-2.3,14.8-2.3
		c2.4,0,4.8,0.1,7.3,0.4s4.8,0.7,7.1,1.2c2.3,0.5,4.4,1.2,6.4,1.9c2,0.7,3.7,1.5,5.2,2.4l-6.7,10.9c-3.2-1.5-6.1-2.5-9-3.2
		c-2.8-0.7-5.7-1-8.6-1c-3.3,0-6.3,0.4-8.9,1.3c-2.6,0.9-4.9,2.1-6.7,3.6c-1.8,1.5-3.2,3.4-4.2,5.5c-1,2.1-1.4,4.4-1.4,6.9
		c0,2.5,0.5,4.8,1.5,6.9s2.5,3.9,4.3,5.4c1.9,1.5,4.1,2.7,6.8,3.6c2.7,0.9,5.6,1.3,8.9,1.3c3.6,0,7-0.5,10.1-1.5
		c3.2-1,6.1-2.4,8.9-4.1l6.7,10.9c-1.7,1-3.6,2-5.6,2.9c-2,0.9-4.2,1.7-6.5,2.3c-2.3,0.7-4.7,1.2-7.2,1.5c-2.5,0.4-5.1,0.6-7.8,0.6
		c-5.5,0-10.4-0.7-14.8-2.2c-4.4-1.5-8.1-3.6-11.1-6.2c-3-2.7-5.3-5.8-7-9.4S1081.3,165.2,1081.3,161z"/>
	<path class="st0" d="M1159.3,108.7h14.5v27.7c3-1.7,6.4-3,10.1-4c3.7-1,7.6-1.5,11.7-1.5c4.8,0,9,0.7,12.8,2.1c3.8,1.4,7,3.4,9.6,6
		c2.6,2.6,4.7,5.8,6.1,9.5c1.4,3.7,2.1,8,2.1,12.6v28.3h-14.4v-27.7c0-2.7-0.4-5.2-1.3-7.5c-0.9-2.3-2.2-4.2-3.9-5.8
		c-1.7-1.6-3.8-2.9-6.2-3.8c-2.4-0.9-5.2-1.3-8.2-1.3c-3.7,0-7.1,0.6-10.3,1.8c-3.2,1.2-5.9,2.7-8.3,4.4v40h-14.5V108.7z"/>
	<path class="st0" d="M654.3,233.3h40.2c5.9,0,10.9,0.6,15.2,1.9s7.9,3.1,10.7,5.5s4.9,5.3,6.3,8.8c1.4,3.5,2.1,7.3,2.1,11.7
		c0,4.1-0.7,7.8-2.1,11.3c-1.4,3.5-3.5,6.4-6.3,9c-2.8,2.5-6.4,4.5-10.7,5.9s-9.4,2.1-15.2,2.1l-24.9,0v20.3h-15.5V233.3z M695,276
		c2.9,0,5.5-0.3,7.7-1c2.2-0.7,4-1.7,5.5-3c1.5-1.3,2.6-2.8,3.3-4.7c0.7-1.8,1.1-3.9,1.1-6.1c0-4.5-1.5-8-4.4-10.6
		c-2.9-2.5-7.3-3.8-13.2-3.8h-25.1V276H695z"/>
	<path class="st0" d="M744,252h14.5v8.3c3.2-2.4,6.6-4.4,10.1-6.2c3.5-1.7,7.1-3,10.6-4l4.2,13.2c-5.6,0.6-10.5,1.8-14.7,3.7
		c-4.2,1.9-7.6,4.7-10.3,8.2v34.3H744V252z"/>
	<path class="st0" d="M821.9,264h-29.5v-12h56.3l-35.5,45.6h33.6v12h-60.2L821.9,264z"/>
	<path class="st0" d="M867.6,316.9c1.5,1,3.1,1.8,4.9,2.6c1.8,0.7,3.6,1.4,5.5,1.9s3.8,0.9,5.8,1.1c2,0.2,4,0.4,5.9,0.4
		c6.6,0,11.8-1.4,15.4-4.3c3.6-2.8,5.4-7.1,5.4-12.8v-2c-1.3,0.9-2.7,1.7-4.3,2.4c-1.6,0.7-3.3,1.4-5.1,1.9
		c-1.8,0.5-3.7,0.9-5.7,1.2c-2,0.3-4,0.4-6.1,0.4c-4.4,0-8.3-0.6-11.8-1.9c-3.5-1.3-6.4-3.2-8.8-5.7s-4.2-5.6-5.5-9.2
		c-1.3-3.6-1.9-7.8-1.9-12.5V252h14.4v24.3c0,7,1.3,12.1,4,15.4c2.7,3.3,6.8,5,12.6,5c4,0,7.6-0.7,10.7-2.1c3.1-1.4,5.6-3.2,7.4-5.4
		V252h14.5v51c0,5.5-0.8,10.3-2.3,14.3s-3.8,7.4-6.8,10.1c-3,2.7-6.6,4.7-11,6c-4.3,1.3-9.2,2-14.7,2c-5.4,0-10.4-0.6-15-1.7
		c-4.7-1.1-8.9-2.7-12.8-4.6L867.6,316.9z"/>
	<path class="st0" d="M943.2,228.6h14.5v28.8c1.3-0.9,2.8-1.7,4.5-2.5c1.7-0.8,3.6-1.5,5.6-2.1c2-0.6,4-1,6.2-1.4
		c2.1-0.3,4.2-0.5,6.3-0.5c4.9,0,9.4,0.7,13.5,2.1c4.1,1.4,7.6,3.5,10.5,6.1c2.9,2.6,5.2,5.7,6.9,9.4c1.6,3.6,2.5,7.6,2.5,12
		c0,4.6-0.9,8.7-2.6,12.4c-1.7,3.7-4.1,6.9-7.2,9.5c-3,2.6-6.7,4.6-10.8,6.1c-4.2,1.4-8.7,2.1-13.6,2.1c-2.1,0-4.1-0.1-6.2-0.4
		c-2-0.3-4-0.6-5.9-1.1c-1.9-0.5-3.6-1-5.3-1.6c-1.6-0.6-3.1-1.3-4.4-2.1v4.2h-14.5V228.6z M957.7,291.5c1.5,1.2,3,2.2,4.6,3
		c1.6,0.8,3.3,1.5,5,2c1.7,0.5,3.4,0.9,5.1,1.1c1.7,0.2,3.4,0.4,5,0.4c3.3,0,6.3-0.4,8.9-1.3c2.6-0.9,4.8-2.1,6.5-3.7
		c1.8-1.6,3.1-3.4,4.1-5.5c0.9-2.1,1.4-4.4,1.4-6.9c0-2.3-0.5-4.5-1.4-6.5s-2.3-3.8-4-5.4c-1.7-1.5-3.8-2.8-6.3-3.7
		c-2.5-0.9-5.2-1.3-8.3-1.3c-2,0-3.9,0.2-5.9,0.6c-2,0.4-3.8,0.9-5.6,1.6s-3.5,1.5-5.1,2.5c-1.6,1-3,2.1-4.1,3.3V291.5z"/>
	<path class="st0" d="M1033.8,316.9c1.5,1,3.1,1.8,4.9,2.6c1.8,0.7,3.6,1.4,5.5,1.9s3.8,0.9,5.8,1.1c2,0.2,4,0.4,5.9,0.4
		c6.6,0,11.8-1.4,15.4-4.3c3.6-2.8,5.4-7.1,5.4-12.8v-2c-1.3,0.9-2.7,1.7-4.3,2.4c-1.6,0.7-3.3,1.4-5.1,1.9
		c-1.8,0.5-3.7,0.9-5.7,1.2c-2,0.3-4,0.4-6.1,0.4c-4.4,0-8.3-0.6-11.8-1.9c-3.5-1.3-6.4-3.2-8.8-5.7s-4.2-5.6-5.5-9.2
		c-1.3-3.6-1.9-7.8-1.9-12.5V252h14.4v24.3c0,7,1.3,12.1,4,15.4c2.7,3.3,6.8,5,12.6,5c4,0,7.6-0.7,10.7-2.1c3.1-1.4,5.6-3.2,7.4-5.4
		V252h14.5v51c0,5.5-0.8,10.3-2.3,14.3s-3.8,7.4-6.8,10.1c-3,2.7-6.6,4.7-11,6c-4.3,1.3-9.2,2-14.7,2c-5.4,0-10.4-0.6-15-1.7
		c-4.7-1.1-8.9-2.7-12.8-4.6L1033.8,316.9z"/>
	<path class="st0" d="M1102.8,272.6l41.7-18.8l4.3,9.9l-41.7,18.8L1102.8,272.6z M1118.5,228.6h14.5v81h-14.5V228.6z"/>
	<path class="st0" d="M1156.7,291.5c0-2.8,0.6-5.3,1.8-7.6c1.2-2.3,3-4.2,5.4-5.9c2.4-1.6,5.4-2.9,9-3.8c3.6-0.9,7.8-1.3,12.6-1.3
		c3.5,0,7.3,0.3,11.2,0.8c3.9,0.5,8,1.3,12.1,2.4c-0.2-1.8-0.7-3.5-1.7-5.1c-0.9-1.5-2.3-2.9-3.9-4c-1.7-1.1-3.7-2-6.1-2.6
		c-2.4-0.6-5-0.9-8-0.9c-1.6,0-3.4,0.1-5.4,0.3s-4,0.5-6.1,0.9c-2.1,0.4-4.1,0.9-6.2,1.5c-2,0.6-3.9,1.3-5.7,2.1l-4.4-11.9
		c2.2-0.8,4.5-1.5,7-2.1c2.5-0.7,5-1.2,7.6-1.7c2.6-0.5,5.2-0.8,7.8-1.1c2.6-0.3,5.1-0.4,7.6-0.4c10.8,0,18.8,2.8,24,8.3
		c5.2,5.5,7.9,13.9,7.9,25.3v25.1H1209v-5.4c-1.5,0.9-3.1,1.7-4.9,2.5c-1.8,0.8-3.7,1.5-5.8,2.1c-2.1,0.6-4.3,1-6.7,1.4
		s-4.9,0.5-7.6,0.5c-4.5,0-8.4-0.5-11.8-1.5c-3.4-1-6.2-2.3-8.5-4.1c-2.3-1.7-4-3.8-5.2-6.1C1157.3,296.7,1156.7,294.2,1156.7,291.5
		z M1172,291c0,0.9,0.2,1.8,0.7,2.7c0.5,0.9,1.3,1.6,2.3,2.3c1.1,0.7,2.4,1.2,4.1,1.6c1.7,0.4,3.7,0.6,6.1,0.6c2.5,0,5-0.2,7.4-0.7
		c2.4-0.5,4.6-1.1,6.6-1.8c2.1-0.7,3.9-1.6,5.6-2.6s3-2,4.2-3v-2.5c-2.2-0.6-4.4-1.1-6.6-1.6c-2.2-0.4-4.2-0.8-6.2-1
		c-2-0.2-3.8-0.4-5.6-0.5c-1.7-0.1-3.3-0.1-4.6-0.1c-2.7,0-4.9,0.2-6.7,0.5c-1.8,0.4-3.2,0.8-4.3,1.4c-1.1,0.6-1.9,1.3-2.3,2.1
		C1172.2,289.3,1172,290.1,1172,291z"/>
</g>
<g>
	<path class="st0" d="M676.1,359.7h3.9l5.9,14.8l5.9-14.8h3.9l-7.3,17.7l8,18.8l15-36.8h4.4l-17.6,41.6h-3.6l-8.7-20.5l-8.8,20.5
		h-3.6L656,359.4h4.4l15.1,36.8l7.9-18.8L676.1,359.7z"/>
	<path class="st0" d="M730.1,401.5c-2.2,0-4.2-0.4-6.1-1.3s-3.5-2-4.9-3.4c-1.4-1.5-2.4-3.1-3.2-5c-0.8-1.9-1.1-3.9-1.1-6.1
		c0-2.8,0.7-5.4,2-7.8c1.3-2.4,3.1-4.3,5.4-5.7c2.3-1.4,4.9-2.1,7.8-2.1c3,0,5.6,0.7,7.9,2.2c2.2,1.4,4,3.3,5.3,5.7s1.9,4.9,1.9,7.7
		c0,0.3,0,0.6,0,0.9c0,0.3,0,0.5-0.1,0.7H719c0.2,2.2,0.8,4.1,1.8,5.8c1,1.7,2.4,3,4,4c1.7,1,3.5,1.5,5.4,1.5c2,0,3.9-0.5,5.6-1.5
		c1.8-1,3-2.3,3.7-4l3.5,0.9c-0.6,1.4-1.6,2.8-2.9,3.9c-1.3,1.2-2.8,2.1-4.5,2.7C734,401.2,732.1,401.5,730.1,401.5z M718.9,384.3
		h22.5c-0.2-2.2-0.8-4.1-1.8-5.8c-1-1.7-2.4-3-4-3.9c-1.7-0.9-3.5-1.4-5.5-1.4c-2,0-3.8,0.5-5.4,1.4c-1.6,0.9-3,2.3-4,3.9
		C719.6,380.2,719.1,382.2,718.9,384.3z"/>
	<path class="st0" d="M761.3,401.5c-2.5,0-4.8-0.4-7-1.2c-2.1-0.8-4-2.1-5.6-3.7l1.6-2.8c1.7,1.6,3.4,2.8,5.2,3.5
		c1.7,0.7,3.6,1.1,5.5,1.1c2.4,0,4.3-0.5,5.8-1.4c1.5-0.9,2.2-2.3,2.2-4.1c0-1.2-0.4-2.1-1.1-2.8c-0.7-0.6-1.8-1.2-3.1-1.6
		c-1.3-0.4-3-0.8-4.8-1.3c-2.1-0.6-3.9-1.2-5.3-1.8c-1.4-0.6-2.5-1.5-3.2-2.4c-0.7-1-1.1-2.3-1.1-3.9c0-2,0.5-3.6,1.5-4.9
		c1-1.3,2.4-2.3,4.1-3c1.7-0.7,3.7-1,5.8-1c2.3,0,4.4,0.4,6.2,1.1s3.3,1.8,4.4,3.1l-1.9,2.7c-1.1-1.2-2.4-2.2-3.9-2.8
		c-1.5-0.6-3.2-0.9-5-0.9c-1.3,0-2.4,0.2-3.6,0.5c-1.1,0.3-2.1,0.9-2.8,1.6c-0.7,0.8-1.1,1.8-1.1,3.1c0,1.1,0.3,1.9,0.8,2.5
		c0.5,0.6,1.4,1.1,2.5,1.5c1.1,0.4,2.4,0.8,4,1.3c2.3,0.6,4.3,1.3,6,1.9c1.7,0.6,3,1.5,4,2.5s1.4,2.4,1.4,4.2c0,2.8-1.1,5-3.2,6.6
		C767.7,400.7,764.8,401.5,761.3,401.5z"/>
	<path class="st0" d="M792.6,401.5c-2.2,0-4.2-0.4-6.1-1.3c-1.9-0.8-3.5-2-4.8-3.4s-2.4-3.1-3.1-5c-0.7-1.9-1.1-3.9-1.1-6
		c0-2.2,0.4-4.2,1.1-6.1s1.8-3.6,3.2-5c1.4-1.5,3-2.6,4.8-3.4c1.9-0.8,3.9-1.3,6.1-1.3c2.2,0,4.2,0.4,6,1.3s3.4,2,4.8,3.4
		c1.4,1.5,2.4,3.1,3.2,5c0.7,1.9,1.1,3.9,1.1,6.1c0,2.1-0.4,4.1-1.1,6c-0.7,1.9-1.8,3.6-3.1,5s-2.9,2.6-4.8,3.4
		C796.8,401.1,794.8,401.5,792.6,401.5z M781.5,385.9c0,2.2,0.5,4.3,1.5,6.1c1,1.8,2.3,3.3,4,4.4c1.7,1.1,3.5,1.6,5.6,1.6
		c2,0,3.9-0.5,5.6-1.6c1.7-1.1,3-2.6,4-4.4s1.5-3.9,1.5-6.1c0-2.2-0.5-4.3-1.5-6.2s-2.4-3.3-4-4.4c-1.7-1.1-3.5-1.6-5.6-1.6
		c-2,0-3.9,0.6-5.5,1.7c-1.7,1.1-3,2.6-4,4.4C782,381.6,781.5,383.6,781.5,385.9z"/>
	<path class="st0" d="M812,384.3l-1.3-2.3l14.3-11.5l1.4,2.3L812,384.3z M815.7,358.2h4v36c0,1.5,0.3,2.5,0.8,3
		c0.5,0.5,1.2,0.7,2,0.7c0.7,0,1.4-0.1,2.1-0.2s1.3-0.3,1.8-0.5l0.7,3.2c-0.7,0.3-1.6,0.6-2.7,0.8c-1.1,0.2-2,0.3-2.8,0.3
		c-1.8,0-3.2-0.5-4.3-1.6c-1.1-1.1-1.6-2.5-1.6-4.4V358.2z"/>
	<path class="st0" d="M832.3,410.3c0.5,0,1.1,0.1,1.6,0.1c0.5,0,0.9,0,1.1-0.1c0.5-0.1,0.9-0.4,1.3-0.8c0.4-0.5,0.9-1.4,1.5-2.7
		c0.6-1.3,1.4-3.3,2.5-5.8L827,370.6h4.2l11.2,26.3l10.3-26.3h4l-15.8,39.2c-0.3,0.7-0.7,1.4-1.2,2.1c-0.5,0.6-1.2,1.1-2,1.5
		c-0.8,0.4-1.8,0.6-3,0.6c-0.4,0-0.7,0-1.1,0c-0.4,0-0.8-0.1-1.3-0.1V410.3z"/>
	<path class="st0" d="M890,359.7h3.9l5.9,14.8l5.9-14.8h3.9l-7.3,17.7l8,18.8l15-36.8h4.4l-17.6,41.6h-3.6l-8.7-20.5l-8.8,20.5h-3.6
		l-17.6-41.6h4.4l15.1,36.8l7.9-18.8L890,359.7z"/>
	<path class="st0" d="M943.8,401.5c-2.2,0-4.2-0.4-6.1-1.3c-1.9-0.8-3.5-2-4.8-3.4s-2.4-3.1-3.1-5c-0.7-1.9-1.1-3.9-1.1-6
		c0-2.2,0.4-4.2,1.1-6.1c0.7-1.9,1.8-3.6,3.2-5c1.4-1.5,3-2.6,4.8-3.4s3.9-1.3,6.1-1.3c2.2,0,4.2,0.4,6,1.3c1.8,0.8,3.4,2,4.8,3.4
		c1.4,1.5,2.4,3.1,3.2,5s1.1,3.9,1.1,6.1c0,2.1-0.4,4.1-1.1,6c-0.7,1.9-1.8,3.6-3.1,5s-2.9,2.6-4.8,3.4
		C948.1,401.1,946.1,401.5,943.8,401.5z M932.8,385.9c0,2.2,0.5,4.3,1.5,6.1c1,1.8,2.3,3.3,4,4.4s3.5,1.6,5.6,1.6
		c2,0,3.9-0.5,5.6-1.6c1.7-1.1,3-2.6,4-4.4c1-1.9,1.5-3.9,1.5-6.1c0-2.2-0.5-4.3-1.5-6.2c-1-1.9-2.4-3.3-4-4.4s-3.5-1.6-5.6-1.6
		c-2,0-3.9,0.6-5.5,1.7c-1.7,1.1-3,2.6-4,4.4C933.3,381.6,932.8,383.6,932.8,385.9z"/>
	<path class="st0" d="M961.1,411.5c-1.3,0-2.5-0.2-3.7-0.5c-1.2-0.4-2.2-0.9-3-1.8l1.9-2.7c0.6,0.5,1.3,0.9,2,1.1
		c0.8,0.2,1.5,0.3,2.3,0.3c0.9,0,1.8-0.2,2.6-0.7c0.8-0.5,1.5-1.1,2-2c0.5-0.8,0.8-1.8,0.8-2.8v-32h4v31.8c0,1.8-0.4,3.4-1.3,4.8
		c-0.9,1.4-2,2.5-3.3,3.3C964.1,411.2,962.6,411.5,961.1,411.5z M966.1,364.2v-5.9h4v5.9H966.1z"/>
	<path class="st0" d="M991.8,401.5c-2.2,0-4.2-0.4-6.1-1.3c-1.9-0.8-3.5-2-4.8-3.4s-2.4-3.1-3.1-5c-0.7-1.9-1.1-3.9-1.1-6
		c0-2.2,0.4-4.2,1.1-6.1c0.7-1.9,1.8-3.6,3.2-5c1.4-1.5,3-2.6,4.8-3.4s3.9-1.3,6.1-1.3c2.2,0,4.2,0.4,6,1.3c1.8,0.8,3.4,2,4.8,3.4
		c1.4,1.5,2.4,3.1,3.2,5s1.1,3.9,1.1,6.1c0,2.1-0.4,4.1-1.1,6c-0.7,1.9-1.8,3.6-3.1,5s-2.9,2.6-4.8,3.4
		C996.1,401.1,994,401.5,991.8,401.5z M980.8,385.9c0,2.2,0.5,4.3,1.5,6.1c1,1.8,2.3,3.3,4,4.4s3.5,1.6,5.6,1.6c2,0,3.9-0.5,5.6-1.6
		c1.7-1.1,3-2.6,4-4.4c1-1.9,1.5-3.9,1.5-6.1c0-2.2-0.5-4.3-1.5-6.2c-1-1.9-2.4-3.3-4-4.4s-3.5-1.6-5.6-1.6c-2,0-3.9,0.6-5.5,1.7
		c-1.7,1.1-3,2.6-4,4.4C981.3,381.6,980.8,383.6,980.8,385.9z"/>
	<path class="st0" d="M1051,370.6h3.9l-13.1,30.4h-3.5l-6.4-15.1l-6.3,15.1h-3.5l-13.1-30.4h3.9l11.1,26.3l5.6-13.7l-5.2-12.5h3.6
		l3.9,9.9l3.9-9.9h3.5l-5.1,12.5l5.6,13.7L1051,370.6z"/>
	<path class="st0" d="M1085.8,400.9h-4V384c0-3.6-0.5-6.2-1.6-7.8c-1.1-1.6-2.7-2.5-5-2.5c-1.6,0-3.1,0.4-4.6,1.1
		c-1.5,0.8-2.9,1.8-4,3.1s-2,2.8-2.5,4.4v18.6h-4v-30.4h3.6v6.9c0.8-1.5,1.9-2.8,3.2-3.9c1.3-1.1,2.8-2,4.5-2.6
		c1.7-0.6,3.4-0.9,5.2-0.9c1.7,0,3.1,0.3,4.3,0.9c1.2,0.6,2.1,1.5,2.8,2.6c0.7,1.1,1.2,2.5,1.5,4.1c0.3,1.6,0.5,3.4,0.5,5.4V400.9z"
		/>
	<path class="st0" d="M1094.3,364.1v-5.9h4v5.9H1094.3z M1094.3,400.9v-30.5h4v30.5H1094.3z"/>
	<path class="st0" d="M1128.8,400.9l-11.3-15.6l-6.5,6.1v9.5h-4v-42.7h4v28.9l17.3-16.6h4.4l-12.5,12.4l12.9,17.9H1128.8z"/>
</g>
</svg>
