<?xml version="1.0" ?><!DOCTYPE svg  PUBLIC '-//W3C//DTD SVG 1.0//EN'  'http://www.w3.org/TR/2001/REC-SVG-20010904/DTD/svg10.dtd'><svg id="Layer_1" style="enable-background:new 0 0 100 100;" version="1.0" viewBox="0 0 100 100" xml:space="preserve" xmlns="http://www.w3.org/2000/svg" xmlns:xlink="http://www.w3.org/1999/xlink"><g><style>path{fill:white;}</style><path d="M18.5,73.29h-6.33V56.66h6.33c1.54,0,2.87,0.19,3.98,0.57c1.12,0.39,2.04,0.93,2.77,1.64c0.74,0.71,1.28,1.55,1.64,2.54    c0.36,0.98,0.54,2.07,0.54,3.27c0,2.72-0.69,4.83-2.09,6.34C23.95,72.53,21.67,73.29,18.5,73.29z"/><path d="M100,10v80c0,5.52-4.48,10-10,10H55.8c2.54,0,4.79-0.31,6.75-0.94c1.95-0.62,3.6-1.5,4.93-2.62    c1.33-1.13,2.33-2.48,3.01-4.04c0.67-1.56,1-3.26,1-5.11c0-1.51-0.24-2.81-0.73-3.89c-0.5-1.08-1.15-1.99-1.97-2.75    c-0.81-0.76-1.74-1.39-2.77-1.91c-1.03-0.51-2.09-0.96-3.17-1.35c-1.08-0.38-2.13-0.73-3.16-1.04c-1.04-0.31-1.96-0.64-2.78-0.99    c-0.81-0.35-1.47-0.75-1.96-1.21c-0.49-0.45-0.74-1.03-0.74-1.73c0-0.96,0.38-1.71,1.14-2.25c0.75-0.54,1.84-0.81,3.26-0.81    c0.98,0,1.86,0.12,2.62,0.35c0.77,0.22,1.46,0.47,2.07,0.73c0.62,0.27,1.19,0.51,1.71,0.74c0.53,0.23,1.06,0.34,1.59,0.34    c0.5,0,0.92-0.09,1.24-0.28c0.32-0.2,0.63-0.52,0.92-0.98l2.52-3.92c-0.7-0.7-1.5-1.34-2.41-1.93c-0.92-0.58-1.92-1.09-3.03-1.53    c-1.1-0.43-2.28-0.76-3.54-1s-2.57-0.36-3.91-0.36c-2.47,0-4.63,0.31-6.48,0.95c-1.85,0.64-3.38,1.49-4.61,2.57    c-1.22,1.08-2.14,2.34-2.75,3.77c-0.61,1.42-0.92,2.93-0.92,4.51c0,1.71,0.25,3.16,0.76,4.36c0.5,1.2,1.16,2.21,1.98,3.04    c0.81,0.83,1.74,1.51,2.79,2.05c1.04,0.54,2.1,1.01,3.18,1.39c1.08,0.38,2.14,0.73,3.19,1.03c1.04,0.3,1.97,0.62,2.79,0.97    c0.81,0.35,1.47,0.76,1.98,1.24c0.5,0.48,0.75,1.09,0.75,1.84c0,0.4-0.08,0.8-0.25,1.18c-0.17,0.39-0.43,0.74-0.79,1.05    s-0.84,0.56-1.44,0.74c-0.6,0.18-1.33,0.27-2.2,0.27c-1.22,0-2.23-0.15-3.04-0.44c-0.8-0.28-1.5-0.6-2.1-0.93    c-0.6-0.34-1.16-0.65-1.68-0.94c-0.51-0.29-1.1-0.43-1.74-0.43c-0.7,0-1.26,0.14-1.7,0.41c-0.43,0.28-0.8,0.66-1.11,1.14    l-2.59,4.1c0.72,0.65,1.58,1.26,2.59,1.82s2.1,1.05,3.29,1.46s2.42,0.73,3.69,0.97c1.27,0.24,2.55,0.36,3.82,0.36H12.17V82.47    h6.33c3.63,0,6.77-0.44,9.42-1.32c2.65-0.87,4.84-2.09,6.57-3.65s3.01-3.43,3.85-5.62c0.84-2.18,1.26-4.58,1.26-7.2    c0-2.42-0.41-4.68-1.22-6.76c-0.82-2.09-2.09-3.9-3.8-5.44c-1.72-1.54-3.9-2.74-6.55-3.62c-2.66-0.87-5.83-1.31-9.53-1.31H0V10    C0,4.48,4.48,0,10,0h80C95.52,0,100,4.48,100,10z"/></g></svg>