<?xml version="1.0" encoding="utf-8"?>
<!-- Generator: Adobe Illustrator 21.0.0, SVG Export Plug-In . SVG Version: 6.00 Build 0)  -->
<svg version="1.1" id="Warstwa_2" xmlns="http://www.w3.org/2000/svg" xmlns:xlink="http://www.w3.org/1999/xlink" x="0px" y="0px"
	 viewBox="0 0 471.3 425.6" style="enable-background:new 0 0 471.3 425.6;" xml:space="preserve">
<style>
path{fill:white}
</style>
<path d="M356.5,265.4c-9.4-32.4-54.9-62.5-131.9,19.6l8.5,5.5c0,0,64-83.6,102.7-32.6s-67,82.1-96.9,79c-29.9-3.1-141.4-2-169.1,7
	c32.9-30.3,190.5-136.1,190.5-136.1S416.9,81.7,471.3,44.7c0,0,0,0-3.5-4.7c-76,21.8-152,12-224.8,8.4
	c-78.3-3.2-139.9,65.1-128.2,106.5c9.4,32.4,54.9,62.5,131.9-19.6l-8.5-5.5c0,0-64,83.6-102.7,32.6s67-82.1,96.9-79
	c29.9,3.1,141.4,2,169.1-7c-32.9,30.3-190.5,136.1-190.5,136.1S54.5,338.6,0,375.6c0,0,0,0,3.5,4.7c76-21.8,152-12,224.8-8.4
	C306.6,375.1,368.2,306.7,356.5,265.4z"/>
<g>
	<path d="M72,301.1c-13.6-26.5-21.3-56.5-21.3-88.4C50.7,106,137.2,19.5,244,19.5c30.4,0,59.2,7,84.9,19.6l40.1,1.5
		C333.8,15,290.7,0,244,0C126.5,0,31.2,95.3,31.2,212.8c0,36.4,9.1,70.7,25.3,100.6L72,301.1z"/>
	<path d="M408.4,111c18.3,29.6,28.9,64.4,28.9,101.7c0,106.8-86.5,193.3-193.3,193.3c-33.7,0-65.4-8.6-93-23.8l-37.4-1.4
		c36,28,81.3,44.7,130.5,44.7c117.5,0,212.8-95.3,212.8-212.8c0-41.9-12.1-80.9-33-113.9L408.4,111z"/>
</g>
</svg>
