<?xml version="1.0" encoding="utf-8"?>
<!-- Generator: Adobe Illustrator 21.0.0, SVG Export Plug-In . SVG Version: 6.00 Build 0)  -->
<svg version="1.1" id="Warstwa_1" xmlns="http://www.w3.org/2000/svg" xmlns:xlink="http://www.w3.org/1999/xlink" x="0px" y="0px"
	 viewBox="0 0 190.1 184.4" style="enable-background:new 0 0 190.1 184.4;" xml:space="preserve">
<style>
path{fill:white}
</style>
<path d="M91.3,62.8c-13,3.4-17.7,27-3.5,43.2c-12.2-2.6-21-16-18.6-28.5c2.8-14.8,12.1-22.2,26.4-20c-1.4-4.5-2.6-8.6-3.8-12.7
	c0.2-0.1,0.4-0.3,0.6-0.4c1.4,2.9,2.8,5.7,4.2,8.5c5.8-8.9,8.4-9.9,20.9-7.7c-3.7,8-9.6,11.1-18,9.7c-1.1-0.2-2.3,0.6-3.5,1.8
	c7.7-1.6,13.8,0.8,18.7,6.3c7.2,8,9.1,17.1,5.4,27.2c-3.8,10.3-11.5,15.9-22.2,17.3c-5,0.6-8.5-2.3-11.4-5.9
	C77,89.7,78.7,73.9,91.3,62.8z"/>
<path d="M95.4,184.4c-1-1.5-1.5-2.3-2-3.1c-15.3-26.5-30.7-53-45.9-79.5C40.3,89.2,38.4,74,42.2,61c1.2,1.9,2.1,3.3,2.9,4.7
	c15.8,27.4,31.7,54.7,47.3,82.2c2.3,4.1,4.9,5.2,9.1,4.4c4.2-0.8,8.5-1.2,13.4-1.8C108.4,161.9,102.1,172.8,95.4,184.4z"/>
<path d="M0,19.5c9.3,0,17.3,0,25.2,0c24,0,47.9-0.1,71.9,0.1c13.9,0.1,25.8,5.4,37.1,16c-3.1,0-4.8,0-6.4,0
	c-31.8,0-63.6,0.1-95.4-0.1c-3.8,0-5.8,1.1-7.1,4.6c-1.6,4.2-3.4,8.3-5.6,13.5C13.1,42.2,6.8,31.4,0,19.5z"/>
<path d="M151.5,19.8c13.2,0,25.6,0,38.6,0c-0.8,1.7-1.4,3-2.1,4.3c-14.9,25.8-29.7,51.5-44.6,77.3c-6.6,11.5-16.1,19.8-28.5,24.6
	c-1.2,0.5-2.4,0.7-4.7,1.3c1.2-2.4,2-4,2.8-5.4c15.8-27.4,31.5-54.7,47.5-82c2-3.5,2-5.9-0.4-8.8C157.2,27.6,154.6,23.9,151.5,19.8z
	"/>
<path d="M88.4,133.5c7.3-0.8,14.2-0.8,20.8-2.4c15.8-3.7,28-12.9,36.3-26.8c6.9-11.5,13.5-23.3,20.3-34.9c0.8-1.4,1.7-2.7,3.2-5.1
	c1.6,9,1.1,16.8-0.5,24.6c-6.4,31.7-31.8,55.3-63.8,59.6c-4.9,0.7-8.6,0.3-10.7-5.1C92.6,140,90.3,136.9,88.4,133.5z"/>
<path d="M46.9,38.9c-3.1,8.8-7,17.2-9,25.9c-3.1,13.7-0.1,26.8,6.8,38.9c7.3,12.9,14.8,25.7,22.7,39.4c-2.1-0.7-3.3-0.9-4.4-1.4
	c-36.6-17.2-52.6-62.3-35.3-98.8c1.4-3,3-4.3,6.4-4.1C38.6,39.1,43.1,38.9,46.9,38.9z"/>
<path d="M149.4,51.8c-7.9-16.9-20.1-28.4-37.7-33.3c-6-1.7-12.4-2.3-18.7-2.5c-14-0.4-27.9-0.1-41.9-0.1c-0.4-0.5-0.9-1-1.3-1.5
	c1-0.4,2.1-0.6,3-1.2c33-23.6,81.7-14.6,104.2,19.3c1.5,2.3,1.7,3.9,0.2,6.2C154.4,42.8,152.1,47.2,149.4,51.8z"/>
</svg>
