<?xml version="1.0" encoding="utf-8"?>
<!-- Generator: Adobe Illustrator 21.0.0, SVG Export Plug-In . SVG Version: 6.00 Build 0)  -->
<svg version="1.1" id="Warstwa_1" xmlns="http://www.w3.org/2000/svg" xmlns:xlink="http://www.w3.org/1999/xlink" x="0px" y="0px"
	 viewBox="0 0 1247.2 1090.5" style="enable-background:new 0 0 1247.2 1090.5;" xml:space="preserve">
<style>
*{
	fill: white;
}
</style>
<g id="Warstwa_1_1_">
	<g id="Warstwa_3">
	</g>
</g>
<path d="M954,283c-145-9-513,64-521,194s10,460,10,460s-3-400,44-478s350-132,460-129s97,14,183,40C1130,370,1099,292,954,283z"/>
<path d="M885,603c-62,0-235-78.3-364-112c0,0,263,140.4,355,148.9c7.6,0.7,8.1,377.1,16,377.1s23.1-376.2,31.1-376.8
	c81.3-5.8,168.5-42.9,206.9-99.3C1083,576.2,947,603,885,603z"/>
<path d="M623.6,45C584,11,167,114,89,158.5C224,120,550,80,590,95s107,177,107,177C689,198,663.2,79,623.6,45z"/>
<path d="M861.1,63.5c-14.7-12.7-81.8-6.3-164.1,8.9c4.5,13.9,9,27.9,11.5,42.5c59.9-5.2,105.6-6.4,119-1.4c40,15,77.5,130,77.5,130
	C897.1,169.5,900.7,97.5,861.1,63.5z"/>
<path d="M1060.5,99.2c-11.2-12.1-67.1-11.2-136.2-3.6c2.7,12.6,5.3,25.1,6.4,38.1c49.8-0.4,87.7,1.7,98.4,7.1
	c31.9,16,54.4,119.7,54.4,119.7C1082.4,194.8,1090.7,131.8,1060.5,99.2z"/>
<ellipse cx="1012.4" cy="759.6" rx="34.9" ry="74.7"/>
<path d="M1105.9,827.3c-14.8,0-26.7,25.5-26.7,57.1c0,9.3,1,18.1,2.9,25.8c16.7-23.4,29.3-49.3,35.6-77.1
	C1114.1,829.3,1110.1,827.3,1105.9,827.3z"/>
<ellipse cx="684.1" cy="451" rx="60.5" ry="25"/>
<ellipse cx="912.5" cy="523" rx="75.5" ry="32"/>
<path d="M1161.1,424.2c-0.3,0-0.6,0-0.9,0c-34.9,0-63.2,12-63.2,26.8s28.3,26.8,63.2,26.8c0.9,0,1.8,0,2.6,0
	C1169.9,460.3,1170.8,439.8,1161.1,424.2z"/>
<ellipse cx="964.3" cy="380" rx="56.8" ry="19"/>
<g>
	<g>
		<defs>
			<polygon id="SVGID_1_" points="459.7,451 874.3,634.5 876,1239.8 461.4,1056.3 			"/>
		</defs>
		<clipPath id="SVGID_2_">
			<use xlink:href="#SVGID_1_"  style="overflow:visible;"/>
		</clipPath>
		<g class="st0">
			<defs>
				<polygon id="SVGID_3_" points="459.7,451 874.3,634.5 876,1239.8 461.4,1056.3 				"/>
			</defs>
			<clipPath id="SVGID_4_">
				<use xlink:href="#SVGID_3_"  style="overflow:visible;"/>
			</clipPath>
			<path class="st1" d="M567.5,762.3c-2.2,11.4-3.4,23.8-3.3,37.2c0.1,26.6,4.8,53.7,13.2,79.1l23.3,68.7
				c10.4,8.1,21.8,14.6,33.9,20c0.9,0.3,1.9,0.7,2.8,1L567.5,762.3z"/>
			<path class="st1" d="M756.9,962.5l90-189l-75.2-33.3c9,17.1,16.8,35.3,23.2,54.2l0,0L702.7,988c9,2.2,18.1,4.3,27.2,6.3
				C740.8,987.2,750,976.5,756.9,962.5z"/>
			<path class="st1" d="M540.2,681.7L540.2,681.7l200.4,88.7c-18.8-35.5-44.7-63.7-73.2-76.3l-179.5-79.4l37.9,111.7
				C529,709.7,533.9,694.8,540.2,681.7"/>
			<path class="st1" d="M667.2,640.4c-32.8-14.5-63-11.5-86.8,5.5l86.9,38.5c45.8,20.3,85.2,78.5,102.1,144l14-29.4l0.2-0.1l3.6-7.7
				C762.4,721.6,717.9,662.8,667.2,640.4z"/>
			<path class="st1" d="M808.2,907.5c0-10-0.6-20-1.5-30.1L764.6,966c-5.7,12.6-13.1,23-21.8,30.9c15,3,30.1,5.8,45.1,8.4
				C800.9,979.9,808.4,946.7,808.2,907.5z"/>
			<path class="st1" d="M557.6,796.6c-0.1-36.7,8.2-66.8,22.3-87.7l-28.2-12.5l-7.6-3.4c-10.7,24.2-16.7,54.8-16.6,90.2
				c0.1,27.6,3.9,55.5,10.7,82.5c10.8,16.8,22.3,33.5,33.9,50.8c5.8,8.7,12.3,16.3,19.5,23l-18-53.2
				C563.4,857.7,557.6,826.8,557.6,796.6z"/>
		</g>
	</g>
</g>
<path d="M742.2,150.1l86.1-6.5c15.6,30.9,19.5,63.4,14.7,97.2c-20.1,21.2-43.3,23.1-68.7,10.7c0,0,42.2-8.8,47.6-25s-9-63.3-9-63.3
	s-44.3-6.1-53.9,2.9c-9.6,9,2,24,2,24C743,187.3,732,175.2,742.2,150.1z"/>
<path d="M557.3,123.7l-40,153.6c16.9-6.4,27.4-12.6,34.5-39.7l44.4-15.9c8.9,16.2,27.8,29.7,46.6,29.3L557.3,123.7z M557.8,211.8
	L565,169l20.3,32.1L557.8,211.8z"/>
<path d="M991.1,156.2c-25.1,0-45.5,22.5-45.5,50.2c0,27.7,20.4,50.2,45.5,50.2s45.5-22.5,45.5-50.2
	C1036.6,178.6,1016.2,156.2,991.1,156.2z M991.1,243.3c-14.3,0-25.8-16.6-25.8-37c0-20.4,11.6-37,25.8-37s25.8,16.6,25.8,37
	C1016.9,226.8,1005.3,243.3,991.1,243.3z"/>
<path d="M1042.2,266.5c-12.6-5.2-32.5-38.3-33-44.4c-10.8-5.1-20.5,3.7-20.5,3.7C990,240.6,1018,264.2,1042.2,266.5z"/>
<path d="M384,601c-185.6,39.4-43-265.7-20.6-313.5c43.3,42.2,73.2,73.5,94.8,84.1C484,352.7,508,341,508,341
	c-70-58.7-155-101-155-101S196,441,208,551s147.5,123,180.5,80c-5,84-23.5,127-39.5,137c44,0,49-7,49-7s-4.9-80.9-6.6-162.4
	C389.1,600.4,386.7,601.3,384,601z"/>
</svg>
