<?xml version="1.0" encoding="utf-8"?>
<!-- Generator: Adobe Illustrator 21.0.0, SVG Export Plug-In . SVG Version: 6.00 Build 0)  -->
<svg version="1.1" id="Layer_1" xmlns="http://www.w3.org/2000/svg" xmlns:xlink="http://www.w3.org/1999/xlink" x="0px" y="0px"
	 viewBox="0 0 93.1 93.1" style="enable-background:new 0 0 93.1 93.1;" xml:space="preserve">
<title>Artforma_logo_achromatyczne_poziom</title>
<style>
path{
	fill: white;
}
</style>
<path d="M0,0v93.1h93.1V0H0z M90.9,90.9H2.1V2.2h24l0.1,0.1l14.5,23.4l-0.1,0.1L26.8,48.3H57L43,25.6l0.3-0.3l3.3-5.5l21,34.3H23.1
	L8.9,77.4h11.8l8.1-13.2h35.6l8.1,13.2h11.7l-9.3-15.2h-2.3l8.1,13.2h-7l-8.1-13.2H27.6l-8.1,13.2h-7l11.8-19.2h46.9L46.6,16
	l-4.7,7.7L28.5,2.2H91L90.9,90.9z M41.8,27.6l11.4,18.6H30.4L41.8,27.6z"/>
</svg>
