<?xml version="1.0" encoding="utf-8"?>
<!-- Generator: Adobe Illustrator 21.0.0, SVG Export Plug-In . SVG Version: 6.00 Build 0)  -->
<svg version="1.1" id="Warstwa_1" xmlns="http://www.w3.org/2000/svg" xmlns:xlink="http://www.w3.org/1999/xlink" x="0px" y="0px"
	 viewBox="0 0 1500 1500" style="enable-background:new 0 0 1500 1500;" xml:space="preserve">
<style>
path{
	fill: white;
}
</style>
<g>
	<path d="M361.9,697.9c-0.6,0.7-1.1,1.5-1.4,2.4c-0.1,0.3-0.2,0.6-0.3,0.9c-1,2.9-1,6.1,0.3,9c1.9,4.4,6.3,7.2,11,7.2
		c0.3,0,0.6,0,0.9,0l725.4-56.3c0.8-0.1,1.6-0.2,2.4-0.4c3.4-1,6.2-3.4,7.7-6.5c0.8-1.7,1.2-3.7,1.1-5.7c-0.2-2.8-1.3-5.3-3-7.3
		c-0.7-0.8-1.6-1.6-2.5-2.2c-1.6-1-3.4-1.7-5.3-1.9c-0.4,0-0.8-0.1-1.2-0.1c-0.1,0-0.3,0-0.4,0l-606.6,19.4L754,360.1
		c0.2-0.3,0.5-0.5,0.7-0.8c1.6-2,2.5-4.6,2.5-7.3c0-2.5-0.8-4.8-2.1-6.8c-0.9-1.3-2-2.4-3.3-3.3c-0.6-0.4-1.3-0.8-2.1-1.1
		c-1.4-0.6-3-0.9-4.7-0.9h0c0,0,0,0,0,0c0,0,0,0,0,0c0,0,0,0,0,0c0,0,0,0,0,0c0,0,0,0,0,0c0,0,0,0,0,0c0,0,0,0,0,0c0,0,0,0,0,0
		c0,0,0,0,0,0c0,0,0,0,0,0h0c-1.8,0-3.5,0.4-5,1.1c0,0,0,0,0,0c0,0,0,0,0,0c0,0,0,0,0,0c-0.3,0.1-0.6,0.3-0.8,0.4
		c-0.8,0.5-1.6,1-2.3,1.7L363.2,696.5C362.7,696.9,362.3,697.4,361.9,697.9z"/>
</g>
<path d="M847.7,471.7c0.7,0.1,1.5,0.2,2.2,0.2c5.2,0,9.9-3.3,11.5-8.4l32.2-101l91.3-16.7l21.9,173.4c0.8,6.1,5.9,10.6,12,10.6
	c0.3,0,0.5,0,0.8,0c6.4-0.4,11.3-5.7,11.3-12.1V287.9c0-3.7-1.7-7.2-4.6-9.5c-2.2-1.7-4.8-2.6-7.5-2.6c-0.9,0-1.8,0.1-2.7,0.3
	l-161,37.5c-5.2,1.2-9,5.7-9.3,11.1l-7.8,134.4C837.5,465.2,841.7,470.6,847.7,471.7z"/>
<path d="M723.3,1074.8c-0.3-0.2-0.6-0.4-1-0.5c-0.7-0.3-1.4-0.6-2.1-0.8c-0.7-0.2-1.5-0.3-2.3-0.4l-172.4-13.3l-16.6-303.7
	c-0.4-6.4-5.7-11.4-12.1-11.4c0,0-0.1,0-0.1,0c-6.5,0.1-11.7,5.2-12,11.6l-12.5,343.9c-0.1,3.4,1.2,6.8,3.7,9.1
	c2.3,2.2,5.3,3.4,8.4,3.4c0.3,0,0.6,0,0.9,0l212.6-15.6c3.5-0.3,6.6-2,8.7-4.7c0.5-0.6,0.9-1.2,1.2-1.9c0.5-1,0.9-2.1,1.1-3.2
	c0.1-0.7,0.2-1.5,0.2-2.3v0l0,0C729.1,1080.8,726.8,1077,723.3,1074.8z"/>
<g>
	<path d="M865.1,1097.1c0.6,1.6,1.5,3.1,2.8,4.4c1.4,1.4,3.2,2.5,5,3c1.1,0.3,2.3,0.5,3.5,0.5c0.3,0,0.6,0,0.9,0l164.1-12.5
		c1.6-0.1,3-0.5,4.4-1.2c1-0.5,1.9-1.1,2.7-1.8c2.5-2.2,4-5.4,4-8.9c0.1-6.3-4.7-11.5-10.9-12.2L926,1057V852.2
		c0-3.4-1.4-6.6-3.9-8.8c-2.2-2.1-5.2-3.2-8.2-3.2c-0.3,0-0.6,0-0.9,0l-168.8,12.5c-6.1,0.5-11,5.5-11.2,11.6
		c-0.2,6.2,4.2,11.5,10.3,12.4l136.6,20.2L864.4,1092C864.3,1093.8,864.5,1095.5,865.1,1097.1z"/>
</g>
<path d="M67.7,776.5c-0.7-18.1-0.4-37.1,0.9-56.7c0.4-6.5,0.9-13.1,1.6-19.8c0.6-6.7,1.4-13.4,2.2-20.1c2.9-23.7,7.1-47.9,12.3-72.1
	c0,0,0,0,0,0c1.5-6.9,3.1-13.9,4.8-20.8c1.7-6.9,3.5-13.9,5.3-20.8c1.9-6.9,3.8-13.8,5.9-20.7c2-6.9,4.2-13.7,6.4-20.5
	c7.7-23.8,16.5-47.2,26.2-69.6l132.8,8.6l153.5,9.9c1.2,0.1,2.3,0,3.4-0.3c2.7-0.6,5.1-2.1,6.8-4.3c2.6-2.9,3.7-7,2.7-10.9
	l-68.2-278.6c17.5-11.5,35.7-22.5,54.5-32.8c6.3-3.4,12.6-6.8,18.9-10.1c9.5-4.9,19.2-9.7,28.9-14.3c16.2-7.6,32.6-14.7,49.1-21.2
	c6.6-2.6,13.2-5.1,19.7-7.5C565,82.9,594.5,74,622.9,67.5c15.8-3.6,31.2-6.5,46.2-8.5c0.9-0.1,1.8-0.3,2.6-0.7
	c1.3-0.5,2.4-1.1,3.4-2c1-0.8,1.9-1.9,2.6-3c0.5-0.8,0.9-1.6,1.1-2.4c0.3-0.8,0.5-1.7,0.6-2.6c0.2-1.8,0-3.6-0.6-5.3
	c-0.5-1.3-1.1-2.4-1.8-3.3c-0.5-0.6-1-1.2-1.5-1.7c-1.6-1.5-3.5-2.4-5.1-3c-1.4-0.5-2.6-0.8-3.4-0.9l0,0l0,0
	c-1.1-0.3-2.6-0.5-4.3-0.8c-0.6-0.1-1.2-0.2-1.8-0.2c-1.3-0.2-2.7-0.3-4.2-0.5c-3.1-0.3-6.7-0.5-10.7-0.7c-3.1-0.1-6.4-0.2-10-0.2
	c-3.6,0-7.5,0-11.6,0.2c-2.8,0.1-5.6,0.2-8.6,0.4c-6,0.3-12.4,0.8-19.2,1.5c-3.4,0.3-6.9,0.7-10.6,1.2c-3.6,0.4-7.4,0.9-11.2,1.5
	c-3.8,0.6-7.8,1.2-11.8,1.9c-8.1,1.4-16.6,3-25.4,4.9c-2.4,0.5-4.8,1.1-7.2,1.6c-14.5,3.3-29,7.3-43.6,11.8
	c-2.4,0.8-4.9,1.5-7.3,2.3c-19.4,6.3-38.9,13.6-58.3,21.8c-20.5,8.8-41,18.6-61.2,29.6c-2.9,1.6-5.8,3.1-8.7,4.7
	c-23.1,12.8-45.9,27-68.3,42.5c-4.3,2.9-6.1,8.3-4.8,13.2c0.1,0.3,0.2,0.7,0.3,1l92.7,248.4l-260.8-47.9c-1.7-0.3-3.4-0.3-5,0.1
	c-0.3,0.1-0.6,0.2-0.9,0.3c-0.9,0.3-1.8,0.7-2.7,1.3c-1.1,0.7-2.1,1.6-2.9,2.6c-0.6,0.8-1.2,1.6-1.6,2.6c-2.7,5.8-5.2,11.6-7.7,17.4
	c-1.6,3.7-3.2,7.4-4.7,11.1c-6.4,15.5-12.3,31.1-17.7,46.7c-4.5,13.1-8.6,26.1-12.3,39.2c-0.9,3.2-1.8,6.4-2.6,9.5
	c-2.6,9.5-5,19.1-7.1,28.6c-9.5,41.7-14.9,83-16.1,122.7c-1.4,45.3,2.9,80.7,7.6,103c0.2,1.1,0.5,2.1,0.7,3.1c0.3,1.5,0.7,2.9,1,4.3
	c0.4,1.8,0.9,3.4,1.3,5c0.5,1.7,0.9,3.2,1.4,4.6c0.9,2.9,1.8,5.1,2.6,6.7c0.3,0.5,0.6,1.1,0.9,1.6c0.6,1,1.3,1.9,2,2.6
	c1.8,1.9,4,3.2,6.5,3.7c0.1,0,0.2,0,0.4,0.1c0.1,0,0.2,0,0.4,0.1c1.3,0.2,2.7,0.2,4,0c0.4-0.1,0.9-0.2,1.3-0.3
	c1.7-0.5,3.3-1.4,4.6-2.6c0.3-0.3,0.7-0.6,1-0.9c0.3-0.3,0.6-0.7,0.8-1c0.8-1.1,1.4-2.3,1.8-3.6c0.3-0.8,0.4-1.7,0.5-2.6
	C67.7,777.4,67.7,777,67.7,776.5z"/>
<path d="M1149.2,1325.1c-0.1-0.9-0.3-1.7-0.5-2.4c-0.1-0.2-0.1-0.4-0.2-0.5c-0.2-0.4-0.3-0.8-0.6-1.2c-1.4-2.8-3.9-4.9-6.9-5.9
	c-0.4-0.1-0.8-0.2-1.2-0.3c-2.3-0.5-4.8-0.3-7,0.5c-0.7,0.3-1.5,0.6-2.1,1.1c-12.7,8.1-26.4,15.9-40.7,23.4
	c-20.1,10.5-41.6,20.2-64.1,29.2c-5.2,2.1-10.4,4-15.6,6c-4.6,1.7-9.2,3.4-13.8,5c-6.6,2.3-13.3,4.6-20.1,6.8
	c-10.1,3.3-20.4,6.4-30.7,9.3c-4.6,1.3-9.2,2.6-13.9,3.8c-14.6,3.9-29.2,7.4-43.9,10.5c-3.1,0.7-6.3,1.3-9.4,1.9
	c-19.5,3.9-38.9,7-58.2,9.3L691.9,1165c-0.6-1.2-1.4-2.3-2.4-3.3c-0.6-0.6-1.3-1.2-2.1-1.6c-0.4-0.2-0.8-0.4-1.2-0.6
	c-0.8-0.4-1.6-0.7-2.5-0.9c-0.3-0.1-0.7-0.1-1-0.2c-0.5-0.1-1-0.2-1.5-0.2c-1-0.1-1.9,0-2.9,0.1c-2.4,0.4-4.7,1.5-6.5,3.2
	l-77.5,74.9l-128.7,124.4c-78.1-38.6-155.1-94.1-213.5-152.7c-2.3-2.3-4.6-4.7-6.9-7.1c-3.9-4-7.6-8-11.3-12
	c-2.8-3.1-5.6-6.2-8.3-9.3c-6.2-7.1-12.2-14.2-17.8-21.4c-0.7-0.8-1.4-1.6-2.2-2.2c-0.3-0.2-0.6-0.4-0.8-0.6
	c-0.6-0.4-1.2-0.7-1.8-0.9c-0.3-0.1-0.6-0.2-1-0.4c-0.3-0.1-0.7-0.2-1-0.3c-0.4-0.1-0.8-0.1-1.1-0.2c-0.2,0-0.4,0-0.7-0.1
	c-0.2,0-0.4,0-0.6,0c-2.7,0-5.4,0.8-7.5,2.4c-0.4,0.3-0.7,0.6-1,0.9c-0.3,0.3-0.6,0.6-0.9,1c-0.6,0.7-1.2,1.6-1.7,2.7
	c-0.2,0.3-0.3,0.7-0.4,1.1c-0.2,0.5-0.3,1-0.5,1.6c-0.3,1.6-0.4,3.4-0.1,5.5c0.1,0.3,0.1,0.7,0.2,1.1c0.7,3.2,2.9,8.9,6.7,16.6
	c1.1,2.2,2.3,4.5,3.6,6.9c0.8,1.4,1.6,2.9,2.4,4.4c0.9,1.6,1.8,3.2,2.8,4.9c0.6,1.1,1.3,2.2,2,3.3c1.7,2.9,3.6,5.8,5.6,8.9
	c1.6,2.5,3.3,5,5.1,7.6c0.9,1.3,1.8,2.6,2.7,4c10.2,14.7,23.2,31.4,39.1,49.1c5,5.6,10.2,11.1,15.5,16.5
	c7.1,7.3,14.4,14.4,21.9,21.5c17,15.8,35.2,31.1,54.5,45.6c3.4,2.6,6.8,5.1,10.3,7.6c3.7,2.7,7.5,5.4,11.3,8.1
	c6.9,4.8,14,9.6,21.2,14.2c4.1,2.7,8.3,5.3,12.5,7.9c7.4,4.5,14.8,9,22.4,13.3c7.3,4.2,14.7,8.3,22.2,12.3
	c12.8,6.8,25.9,13.4,39.2,19.6c0.8,0.4,1.6,0.7,2.5,0.9c0.5,0.1,1.1,0.2,1.7,0.2c1.7,0.1,3.3-0.1,4.9-0.6c2.1-0.7,4-2,5.4-3.8
	l167.8-205.3l90,249.4c0.4,1,0.8,1.9,1.4,2.8c0.3,0.4,0.6,0.8,0.9,1.2c0.3,0.4,0.7,0.7,1.1,1.1c1.5,1.3,3.3,2.2,5.3,2.7h0l0,0
	c0.3,0.1,0.7,0.1,1,0.2c0.5,0.1,1.1,0.1,1.7,0.1c0.4,0,0.8,0,1.1-0.1c27.8-2.8,55-6.8,81.6-12.2c3.3-0.7,6.6-1.4,9.9-2.1
	c19.8-4.3,39.1-9.2,58-14.9c3.1-0.9,6.3-1.9,9.4-2.9c17.9-5.7,35.3-11.9,52.2-18.8c14.5-5.9,28.5-12.3,42.2-19
	c2.3-1.1,4.5-2.3,6.8-3.4c4.5-2.3,8.9-4.6,13.3-7c60.9-33.2,94.9-66.4,101.1-76.4c1-1.6,1.6-3.1,2-4.5
	C1149.3,1328,1149.3,1326.5,1149.2,1325.1z"/>
<path d="M1491.8,790.4c1.7-12.9,3.1-26.1,4.1-39.3c0.5-6.6,0.9-13.3,1.3-20c0.3-6.7,0.6-13.4,0.7-20.2s0.2-13.6,0.2-20.4
	s-0.1-13.7-0.3-20.5c-0.4-13.8-1.1-27.6-2.2-41.5c0-0.3-0.1-0.7-0.1-1c-0.1-0.6-0.3-1.3-0.5-1.9c-0.5-1.5-1.3-2.9-2.3-4.1
	c-0.4-0.5-0.9-0.9-1.4-1.3c-1.5-1.2-3.2-2.1-5.1-2.5c0,0,0,0,0,0c-0.2,0-0.4-0.1-0.6-0.1l-261.2-45.2l172.9-201
	c3.6-4.2,3.9-10.3,0.7-14.8c-29.9-42.5-62.9-81.2-98.1-115c-29.4-28.3-60.5-53.4-92.5-74.5c-16.2-10.8-31.9-20-46.5-27.7
	c-2.9-1.5-5.8-3-8.6-4.5c-4.2-2.1-8.4-4.1-12.4-6c-6.7-3.1-13-5.9-19-8.3c-1.2-0.5-2.4-1-3.5-1.4c-4.6-1.8-9-3.4-13.1-4.8
	c-1-0.3-2-0.7-3-1c-4.9-1.6-9.4-2.9-13.3-3.8c-0.8-0.2-1.5-0.4-2.3-0.5c0,0-0.1,0-0.2,0l0,0c-0.4-0.1-0.8-0.2-1.1-0.3
	c-0.4-0.1-0.8-0.2-1.2-0.3c-0.8-0.2-1.6-0.3-2.5-0.4c-0.8-0.1-1.7-0.2-2.6-0.3c-4.3-0.3-8.7,0.5-12.1,4.6c-0.9,1-1.5,2.2-2,3.5
	c-0.3,0.8-0.5,1.7-0.7,2.6c-0.2,1.3-0.2,2.7,0.1,4c0.4,2.2,1.5,4.3,3,5.9c0.3,0.3,0.6,0.6,1,0.9c0.7,0.6,1.4,1.1,2.2,1.5
	c18.6,9.9,37.7,21.7,56.7,34.9c19,13.2,38,28,56.7,43.8c10.7,9.1,21.2,18.5,31.6,28.3c5.2,4.9,10.3,9.8,15.4,14.9
	c5.1,5,10.1,10.1,15.1,15.3c24.9,25.8,48.1,53.3,68.8,81.3l-160.3,237.9c-0.8,1.3-1.4,2.6-1.8,4.1c-0.2,0.9-0.3,1.9-0.3,2.9
	c0,1.5,0.3,2.9,0.9,4.3c0.2,0.5,0.3,0.9,0.5,1.4c0.6,1.3,1.5,2.5,2.5,3.5c0.7,0.7,1.5,1.3,2.3,1.8c0.8,0.5,1.8,0.9,2.7,1.2l275,81.6
	c3.6,66.1-1.5,136.5-14,201.4c-4.6,23.9-10.2,47.1-16.7,69.1c-1.9,6.3-3.8,12.5-5.8,18.5c-1,3-2,6-3.1,9c-3.1,8.9-6.4,17.6-9.9,26
	c-0.3,0.8-0.6,1.7-0.7,2.6c-0.2,1.3-0.2,2.7,0,4c0.2,1.3,0.6,2.6,1.3,3.8c0.6,1.2,1.4,2.2,2.4,3.1c1.6,1.5,3.5,2.5,5.6,3
	c0.1,0,0.2,0.1,0.4,0.1c0.4,0.1,0.7,0.1,1.1,0.2c0.2,0,0.4,0,0.6,0c0.6,0,1.3,0,2-0.1c0.5-0.1,1-0.1,1.5-0.3s1-0.3,1.5-0.5
	c1.6-0.6,3.2-1.6,4.9-3c5.5-4.9,18-22.1,32-50.4c8.4-17,17.3-37.9,25.6-62.5c6.4-18.9,11.9-38.6,16.5-58.8
	C1485.3,832.5,1489,811.7,1491.8,790.4z M1458.9,888.1C1458.9,888.1,1458.9,888.1,1458.9,888.1
	C1458.9,888.1,1458.9,888.1,1458.9,888.1C1458.9,888.1,1458.9,888.1,1458.9,888.1C1458.9,888.1,1458.9,888.1,1458.9,888.1z"/>
</svg>
