<?xml version="1.0" encoding="utf-8"?>
<!-- Generator: Adobe Illustrator 21.0.0, SVG Export Plug-In . SVG Version: 6.00 Build 0)  -->
<svg version="1.1" id="Warstwa_1" xmlns="http://www.w3.org/2000/svg" xmlns:xlink="http://www.w3.org/1999/xlink" x="0px" y="0px"
	 viewBox="0 0 1299 1125" style="enable-background:new 0 0 1299 1125;" xml:space="preserve">
<style type="text/css">
	path{fill:#0099ff;}
</style>
<g id="Warstwa_3">
</g>
<g id="zewn._tr.">
	<g>
		<path d="M649.5,907L649.5,907L649.5,907L286.9,279c-8.1,30.6-12.4,62.8-12.4,96c0,65.9,17,127.9,46.9,181.7L649.5,1125l136-235.6
			C742.1,900.9,696.5,907,649.5,907z"/>
		<path d="M1026.8,0c32.3,32.5,60.4,69.1,83.5,109h-0.1l0,0L747.6,737c94.5-25.6,174.3-87.2,223.5-169.2L1299,0H1026.8z"/>
		<path d="M188.7,109L188.7,109L188.7,109h725.1C846,41.6,752.6,0,649.5,0l0,0H0l136,235.5C148.1,190.7,166,148.3,188.7,109z"/>
	</g>
</g>
<g id="koło">
	<g>
		<path d="M649.5,302.8L649.5,302.8L649.5,302.8c30,0,55.7,18.3,66.7,44.4l9.2-16l0,0l0.1-0.1l2.4-4.2
			c-16.2-26.3-45.2-43.9-78.4-43.9c-21.5,0-41.3,7.4-56.9,19.7H649.5z"/>
		<path d="M712.7,410c-12.3,22.2-36,37.2-63.2,37.2c-3.1,0-6.2-0.2-9.2-0.6l9.2,16l0,0l2.5,4.3c49.6-1.3,89.4-42,89.4-91.9
			c0-4.5-0.3-8.9-0.9-13.2L712.7,410z"/>
		<path d="M587.5,412.1c-6.5-10.8-10.3-23.5-10.3-37.1c0-16.5,5.5-31.7,14.8-43.8h-18.4l0,0l0,0h-5c-7.1,13-11.1,27.9-11.1,43.8
			c0,38.8,24,71.9,57.9,85.4L587.5,412.1z"/>
	</g>
</g>
<g id="koło_1_">
	<g>
		<path d="M604.5,384.5L604.5,384.5L604.5,384.5c-4-18.7,4.1-37.1,18.8-47.3l-11.1-3.6l0,0l-0.1-0.1l-2.9-0.9
			c-14.3,13.5-21.4,33.9-17,54.6c2.8,13.4,10,24.7,19.8,32.8L604.5,384.5z"/>
		<path d="M662.9,331.1c15.4,4.7,27.9,17.5,31.5,34.4c0.4,1.9,0.7,3.9,0.9,5.8l8.7-7.8l0,0l2.4-2.1c-7.4-30.7-37.9-50.1-69-43.6
			c-2.8,0.6-5.5,1.4-8.1,2.3L662.9,331.1z"/>
		<path d="M680.8,408.7c-5.9,5.5-13.3,9.5-21.8,11.3c-10.3,2.2-20.4,0.7-29.2-3.4l2.4,11.5l0,0l0,0l0.7,3.1c9,2.7,18.9,3.2,28.7,1.1
			c24.1-5.1,41.6-24.4,45.6-47.3L680.8,408.7z"/>
	</g>
</g>
<g id="koło_2_">
	<g>
		<path d="M666.2,354.9L666.2,354.9L666.2,354.9c8.4,6.9,11.3,18,8.4,27.8l6.3-2.3l0,0l0.1,0l1.6-0.6c1.6-11.1-2.5-22.7-11.7-30.3
			c-6-5-13.2-7.5-20.4-7.6L666.2,354.9z"/>
		<path d="M659.1,399.3c-8.6,3.4-18.6,2.1-26.2-4.2c-0.9-0.7-1.7-1.5-2.4-2.3l-1.1,6.6l0,0l-0.3,1.8c14.2,11.1,34.7,8.9,46.2-5
			c1-1.2,2-2.6,2.8-3.9L659.1,399.3z"/>
		<path d="M623.6,371.1c0.7-4.5,2.6-8.9,5.7-12.7c3.8-4.6,8.8-7.6,14.2-8.8l-5.1-4.3l0,0l0,0l-1.4-1.2c-5,2-9.5,5.2-13.2,9.7
			c-8.9,10.8-9.9,25.6-3.6,37.2L623.6,371.1z"/>
	</g>
</g>
<g id="Warstwa_1_2_">
	<g>
		<path d="M649.5,639.1L649.5,639.1L649.5,639.1l181.1-313.7c4,15.3,6.2,31.4,6.2,47.9c0,32.9-8.5,63.9-23.4,90.8L649.5,748
			l-67.9-117.7C603.2,636,626,639.1,649.5,639.1z"/>
		<path d="M461.1,186.1c-16.1,16.2-30.2,34.5-41.7,54.4h0l0,0l181.1,313.7c-47.2-12.8-87.1-43.6-111.6-84.5L325.1,186.1H461.1z"/>
		<path d="M879.7,240.5L879.7,240.5L879.7,240.5H517.5c33.9-33.7,80.5-54.4,132-54.4l0,0h324.4L906,303.7
			C899.9,281.3,891,260.1,879.7,240.5z"/>
	</g>
</g>
</svg>
