<?xml version="1.0" encoding="utf-8"?>
<!-- Generator: Adobe Illustrator 21.0.0, SVG Export Plug-In . SVG Version: 6.00 Build 0)  -->
<svg version="1.1" id="Warstwa_1" xmlns="http://www.w3.org/2000/svg" xmlns:xlink="http://www.w3.org/1999/xlink" x="0px" y="0px"
	 viewBox="0 0 1299 1258" style="enable-background:new 0 0 1299 1258;" xml:space="preserve">
<style type="text/css">
	.st0{fill:#0099FF;}
</style>
<g id="Warstwa_3">
</g>
<g id="Warstwa_1_1_">
	<g>
		<path class="st0" d="M649.5,1040L649.5,1040L649.5,1040L286.9,412c-8.1,30.6-12.4,62.8-12.4,96c0,65.9,17,127.9,46.9,181.7
			L649.5,1258l136-235.6C742.1,1033.9,696.5,1040,649.5,1040z"/>
		<path class="st0" d="M1026.8,133c32.3,32.5,60.4,69.1,83.5,109h-0.1l0,0L747.6,870c94.5-25.6,174.3-87.2,223.5-169.2L1299,133
			H1026.8z"/>
		<path class="st0" d="M188.7,242L188.7,242L188.7,242h725.1C846,174.6,752.6,133,649.5,133l0,0H0l136,235.5
			C148.1,323.7,166,281.3,188.7,242z"/>
	</g>
</g>
<g id="koło">
	<g>
		<path class="st0" d="M649.5,109L649.5,109L649.5,109c165.8,0,308,101.2,368.3,245.2l50.9-88.2l0,0l0.7-0.4l13.3-23.1
			C993.3,97,832.8,0,649.5,0C530.8,0,421.5,40.7,335,109H649.5z"/>
		<path class="st0" d="M998.7,701.2C930.7,823.9,799.8,907,649.5,907c-17.3,0-34.3-1.1-50.9-3.2l50.9,88.2l0,0l13.8,23.9
			c274.2-7.4,494.2-232,494.2-507.9c0-24.7-1.8-49.1-5.2-72.9L998.7,701.2z"/>
		<path class="st0" d="M307.2,713.1c-36-59.9-56.7-130.1-56.7-205.1c0-91,30.5-174.9,81.7-242H230.3l0,0l0,0h-27.6
			c-39,71.9-61.2,154.4-61.2,242c0,214.1,132.4,397.2,319.8,472L307.2,713.1z"/>
	</g>
</g>
</svg>
