<?xml version="1.0" encoding="utf-8"?>
<!-- Generator: Adobe Illustrator 21.0.0, SVG Export Plug-In . SVG Version: 6.00 Build 0)  -->
<svg version="1.1" id="Warstwa_1" xmlns="http://www.w3.org/2000/svg" xmlns:xlink="http://www.w3.org/1999/xlink" x="0px" y="0px"
	 viewBox="0 0 222 239" style="enable-background:new 0 0 222 239;" xml:space="preserve">
<style type="text/css">
	.st0{display:none;}
	path{fill: white;}
</style>
<path class="st0" d="M166.5,21c-40.7-7.7-60.9,39.1-81.5,50.8S13,96.5,14.5,132s47.6,28.3,79,42.1c31.4,13.8,61.8,62.1,93.5,39.1
	s2.2-63.4,1.7-98.6S207.2,28.7,166.5,21z"/>
<path d="M168.4,234.8c-6.3,0-12.8-1.4-19.5-4.3c-12.1-5.2-23.2-14.5-33.9-23.5c-9.2-7.8-18.8-15.8-27.4-19.6
	c-8.5-3.7-19.1-5.9-29.4-7.9c-12.5-2.5-25.4-5-36-10.8c-14.1-7.7-21.6-19.9-22.3-36c-0.7-17.2,7.2-32.3,23.4-44.9
	c12.2-9.4,27.3-16.1,39.4-21.4c5.8-2.6,11.3-5,15-7.1c4.4-2.5,10.5-9.5,16.4-16.3C110.5,24,132.8-1.7,168.7,5.1h0
	c19.7,3.7,32.3,16.2,36.6,36.1c3.1,14.7,1.4,31.5-0.3,47.7c-1,9.3-1.9,18-1.8,25.6c0.1,9.6,2.8,20.3,5.7,31.7
	c6.6,26,14.7,58.5-14.8,79.8C186,231.8,177.4,234.8,168.4,234.8z M157.4,33c-15,0-26.4,11.7-41.2,28.8c-7.8,9.1-15.2,17.6-24,22.6
	c-5,2.8-11.1,5.5-17.6,8.4C49.2,104,28.3,114.6,29,131.4c0.5,11.1,8.3,14.4,34.9,19.6c11.8,2.3,24,4.8,35.5,9.8
	c12.4,5.5,23.5,14.8,34.3,23.9c23.6,19.8,33.2,25.2,43.5,17.7c12.3-8.9,10.6-21.9,3.7-49.3c-3.1-12.5-6.4-25.4-6.5-38.4
	c-0.1-9.2,0.9-19.2,1.9-28.9c3.8-36.7,2.5-49.5-12.9-52.4C161.3,33.2,159.3,33,157.4,33z"/>
<path d="M150.8,65c20.5,6.3-3.5,22.5-3.3,50.2s29.5,38,12.8,49.3s-20.8-15.5-41.8-26.8s-49.2,3.8-49.3-16.3s27-6.5,47-22.5
	S130.3,58.8,150.8,65z"/>
<image style="display:none;overflow:visible;" width="222" height="239" xlink:href="D1EDC813.jpg" >
</image>
</svg>
