<svg height="512" width="342" xmlns="http://www.w3.org/2000/svg"><style>path{fill: white;}</style><path d="m295.192627 244.9696655c105.5618896 128.0856018 9.0266724 239.1581421-77.3627625 260.7360229-99.6062241 24.9066773-189.7272453-26.8969421-216.5798823-106.1517028 34.6387215 56.4646301 135.22789 68.7102356 190.0109406 34.3164368 62.1815491-39.035553 82.6950073-107.621582 36.838913-163.2581482 0 0-67.7592926-81.5374298-67.7746277-81.5526581-11.9017029-14.4075165-7.6629028-34.1019745 6.7746429-45.9946136 14.345871-11.817749 33.7943878-11.8798065 45.734375 2.3284912zm-181.8744965-3.5701141c-45.8412857-55.6361542-25.3105087-124.2368698 36.853714-163.2902527 54.77742-34.3913116 155.3731689-22.1457138 190.0109558 34.3464661-26.8673401-79.2837448-116.9640656-131.0562744-216.579895-106.16642-86.396637 21.5803757-182.9384041 132.6060104-77.3606797 260.735405l80.7470245 98.0142212c11.9398727 14.2082825 31.3736954 14.1166077 45.735817 2.2836304 14.4227448-11.8778076 18.6748962-31.5570679 6.7746582-46.0098267-.0316162-.0153504-66.1815948-79.9132233-66.1815948-79.9132233z"/></svg>