<?xml version="1.0" encoding="utf-8"?>
<!-- Generator: Adobe Illustrator 21.0.0, SVG Export Plug-In . SVG Version: 6.00 Build 0)  -->
<svg version="1.1" xmlns="http://www.w3.org/2000/svg" xmlns:xlink="http://www.w3.org/1999/xlink" x="0px" y="0px"
	 viewBox="0 0 1247.2 1090.5" style="enable-background:new 0 0 1247.2 1090.5;" xml:space="preserve">
<style>
	path{fill:white}
</style>
<g id="Warstwa_1">
	<g id="Warstwa_3">
	</g>
</g>
<g id="Warstwa_2">
	<path d="M880.7,165.7c-73.3-221.6-436-220.1-516.8,0C-33.4,84.1-152.1,662.5,245.2,744c0,0,0,267,0,305c0,38,368.3,41.9,377.1,42
		c8.8-0.1,377.1-4,377.1-42c0-38,0-303,0-303C1400.2,664.1,1281.5,83.7,880.7,165.7z M626.7,297.1c95.8,0,179.8,50.1,226.5,125.4
		l-7,11.9l-0.4,0.2l-26.6,45.6c-31.5-74.4-105.9-126.8-192.6-126.8H462.3C507.5,318.1,564.6,297.1,626.7,297.1z M287.1,365.9h339.6
		c53.9,0,102.8,21.5,138.2,56.4H385.8c-11.9,20.3-21.2,42.2-27.6,65.4L287.1,365.9z M361.1,559.7c0-45.3,11.6-87.9,32-125.1h14.4
		h53.3c-26.8,34.7-42.7,78.1-42.7,125.1c0,38.8,10.8,75.1,29.6,106l80.6,138C430.3,765.1,361.1,670.4,361.1,559.7z M626.7,947.5
		L455.2,653.7c-15.6-27.8-24.5-59.9-24.5-93.9c0-17.2,2.2-33.8,6.5-49.6l189.6,324.7c24.6,0,48.4-3.2,71.1-9.1L626.7,947.5z
		 M633.9,822.3l-7.2-12.4l-26.6-45.6c8.7,1.1,17.6,1.7,26.6,1.7c78.6,0,147-43,182.6-106.4L889.6,522c1.8,12.3,2.7,24.9,2.7,37.7
		C892.4,702.4,777.3,818.5,633.9,822.3z M794.9,659.4c-25.7,42.4-67.5,74.2-116.9,87.5l189.6-324.7h0.1
		c-12.1-20.6-26.8-39.6-43.7-56.4h142.3L794.9,659.4z"/>
</g>
</svg>
