<?xml version="1.0" encoding="UTF-8"?>
<!-- Generator: Adobe Illustrator 21.0.0, SVG Export Plug-In . SVG Version: 6.00 Build 0)  -->
<svg version="1.1" xmlns="http://www.w3.org/2000/svg" xmlns:xlink="http://www.w3.org/1999/xlink" x="0px" y="0px" viewBox="0 0 1500 1500" style="enable-background:new 0 0 1500 1500;" xml:space="preserve">
<style type="text/css">
	.st0{fill:#A2D122;}
</style>
<g id="Warstwa_2">
</g>
<g id="Warstwa_1">
	<g>
		<g>
			<path class="st0" d="M807.4,1099.8v185.5l115.7-200.5C886.2,1094.6,847.4,1099.8,807.4,1099.8z"/>
			<path class="st0" d="M1199.5,420.6L1199.5,420.6L890.8,955.1c80.4-21.8,148.3-74.2,190.2-144l279.1-483.2h-231.7     C1156,355.5,1179.9,386.7,1199.5,420.6z"/>
			<path class="st0" d="M807.4,327.9v92.8h224.9C974.6,363.3,895.1,327.9,807.4,327.9z"/>
			<path class="st0" d="M1120.8,516.1l43.3-75.1l0.6-0.3l11.3-19.7C1100,297.2,963.4,214.7,807.4,214.7v92.8     C948.5,307.5,1069.5,393.6,1120.8,516.1z"/>
			<path class="st0" d="M1239.7,647c0-21-1.5-41.8-4.4-62l-130.7,226.5c-57.9,104.4-169.3,175.1-297.2,175.1v72.3l11.7,20.3     C1052.5,1073,1239.7,881.8,1239.7,647z"/>
		</g>
		<path class="st0" d="M201.1,188.4v929.2c7.5,84.9,24.4,152,50.7,201.2c26.3-49.2,43.2-116.3,50.7-201.2V188.4    C269.4,171.3,235.6,171,201.1,188.4z M292.5,1010.3H211V971h81.5V1010.3z"/>
		<path class="st0" d="M378.6,97.8v1082.3c9.3,98.9,30.3,177.1,63,234.4c32.7-57.3,53.7-135.4,63-234.4V97.8    C463.6,78,421.6,77.5,378.6,97.8z M492.3,1055.2H391v-45.8h101.3V1055.2z"/>
		<path class="st0" d="M580.8,17V1236c10.7,111.4,35,199.4,72.7,264c37.8-64.6,62-152.5,72.7-264V17C678.9-5.4,630.5-5.9,580.8,17z     M712.1,1095.2h-117v-51.6h117V1095.2z"/>
	</g>
</g>
</svg>